{
    "asset" : {
        "generator" : "Khronos glTF Blender I/O v1.4.40",
        "version" : "2.0"
    },
    "scene" : 0,
    "scenes" : [
        {
            "name" : "Scene",
            "nodes" : [
                0,
                1,
                2,
                3,
                4,
                5,
                6,
                7
            ]
        }
    ],
    "nodes" : [
        {
            "mesh" : 0,
            "name" : "Cubo",
            "scale" : [
                1.8243653774261475,
                1.5333549976348877,
                1.8263362646102905
            ],
            "translation" : [
                0.6049477458000183,
                -2.3500025272369385,
                0.12367868423461914
            ]
        },
        {
            "mesh" : 1,
            "name" : "Piano.003",
            "scale" : [
                0.5978838205337524,
                1,
                0.7724063396453857
            ],
            "translation" : [
                -0.924319326877594,
                2.526087760925293,
                0.12367868423461914
            ]
        },
        {
            "mesh" : 2,
            "name" : "Piano",
            "translation" : [
                0.6049477458000183,
                2.0754754543304443,
                0.12367868423461914
            ]
        },
        {
            "mesh" : 3,
            "name" : "Piano.002",
            "scale" : [
                0.8845841884613037,
                1,
                0.21122384071350098
            ],
            "translation" : [
                0.38967540860176086,
                1.9920141696929932,
                0.12367868423461914
            ]
        },
        {
            "mesh" : 4,
            "name" : "Piano.005",
            "scale" : [
                0.8845841884613037,
                1,
                0.21122384071350098
            ],
            "translation" : [
                0.38967540860176086,
                1.9920141696929932,
                -1.184570550918579
            ]
        },
        {
            "mesh" : 5,
            "name" : "Cubo.001",
            "scale" : [
                -0.2017972469329834,
                0.5215960741043091,
                0.11878881603479385
            ],
            "translation" : [
                0.9499314427375793,
                1.936875581741333,
                -2.212801933288574
            ]
        },
        {
            "mesh" : 6,
            "name" : "Piano.001",
            "scale" : [
                1.8243653774261475,
                1,
                1.8263362646102905
            ],
            "translation" : [
                0.6049477458000183,
                0.3428804874420166,
                0.12367868423461914
            ]
        },
        {
            "mesh" : 7,
            "name" : "Piano.004",
            "scale" : [
                1.8243653774261475,
                1,
                0.1534256488084793
            ],
            "translation" : [
                0.6049477458000183,
                0.41861045360565186,
                1.7571555376052856
            ]
        }
    ],
    "meshes" : [
        {
            "name" : "Cubo",
            "primitives" : [
                {
                    "attributes" : {
                        "POSITION" : 0,
                        "NORMAL" : 1,
                        "TEXCOORD_0" : 2
                    },
                    "indices" : 3
                }
            ]
        },
        {
            "name" : "Piano.004",
            "primitives" : [
                {
                    "attributes" : {
                        "POSITION" : 4,
                        "NORMAL" : 5,
                        "TEXCOORD_0" : 6
                    },
                    "indices" : 7
                }
            ]
        },
        {
            "name" : "Piano.006",
            "primitives" : [
                {
                    "attributes" : {
                        "POSITION" : 8,
                        "NORMAL" : 9,
                        "TEXCOORD_0" : 10
                    },
                    "indices" : 7
                }
            ]
        },
        {
            "name" : "Piano.007",
            "primitives" : [
                {
                    "attributes" : {
                        "POSITION" : 11,
                        "NORMAL" : 12,
                        "TEXCOORD_0" : 13
                    },
                    "indices" : 7
                }
            ]
        },
        {
            "name" : "Piano.008",
            "primitives" : [
                {
                    "attributes" : {
                        "POSITION" : 14,
                        "NORMAL" : 15,
                        "TEXCOORD_0" : 16
                    },
                    "indices" : 7
                }
            ]
        },
        {
            "name" : "Cubo.001",
            "primitives" : [
                {
                    "attributes" : {
                        "POSITION" : 17,
                        "NORMAL" : 18,
                        "TEXCOORD_0" : 19
                    },
                    "indices" : 20
                }
            ]
        },
        {
            "name" : "Piano.001",
            "primitives" : [
                {
                    "attributes" : {
                        "POSITION" : 21,
                        "NORMAL" : 22,
                        "TEXCOORD_0" : 23
                    },
                    "indices" : 7
                }
            ]
        },
        {
            "name" : "Piano.005",
            "primitives" : [
                {
                    "attributes" : {
                        "POSITION" : 24,
                        "NORMAL" : 25,
                        "TEXCOORD_0" : 26
                    },
                    "indices" : 7
                }
            ]
        }
    ],
    "accessors" : [
        {
            "bufferView" : 0,
            "componentType" : 5126,
            "count" : 8,
            "max" : [
                1,
                3.6685521602630615,
                1
            ],
            "min" : [
                -1,
                1.6685521602630615,
                -1
            ],
            "type" : "VEC3"
        },
        {
            "bufferView" : 1,
            "componentType" : 5126,
            "count" : 8,
            "type" : "VEC3"
        },
        {
            "bufferView" : 2,
            "componentType" : 5126,
            "count" : 8,
            "type" : "VEC2"
        },
        {
            "bufferView" : 3,
            "componentType" : 5123,
            "count" : 12,
            "type" : "SCALAR"
        },
        {
            "bufferView" : 4,
            "componentType" : 5126,
            "count" : 4,
            "max" : [
                0.5042397975921631,
                0,
                1
            ],
            "min" : [
                -0.5042396783828735,
                0,
                -1
            ],
            "type" : "VEC3"
        },
        {
            "bufferView" : 5,
            "componentType" : 5126,
            "count" : 4,
            "type" : "VEC3"
        },
        {
            "bufferView" : 6,
            "componentType" : 5126,
            "count" : 4,
            "type" : "VEC2"
        },
        {
            "bufferView" : 7,
            "componentType" : 5123,
            "count" : 6,
            "type" : "SCALAR"
        },
        {
            "bufferView" : 8,
            "componentType" : 5126,
            "count" : 4,
            "max" : [
                -1.0185620784759521,
                -0.666985034942627,
                0.18456411361694336
            ],
            "min" : [
                -1.8537335395812988,
                -0.666985034942627,
                -1.8154358863830566
            ],
            "type" : "VEC3"
        },
        {
            "bufferView" : 9,
            "componentType" : 5126,
            "count" : 4,
            "type" : "VEC3"
        },
        {
            "bufferView" : 10,
            "componentType" : 5126,
            "count" : 4,
            "type" : "VEC2"
        },
        {
            "bufferView" : 11,
            "componentType" : 5126,
            "count" : 4,
            "max" : [
                -1.0185620784759521,
                -0.666985034942627,
                0.18456411361694336
            ],
            "min" : [
                -1.8537335395812988,
                -0.666985034942627,
                -1.8154358863830566
            ],
            "type" : "VEC3"
        },
        {
            "bufferView" : 12,
            "componentType" : 5126,
            "count" : 4,
            "type" : "VEC3"
        },
        {
            "bufferView" : 13,
            "componentType" : 5126,
            "count" : 4,
            "type" : "VEC2"
        },
        {
            "bufferView" : 14,
            "componentType" : 5126,
            "count" : 4,
            "max" : [
                -1.0185620784759521,
                -0.666985034942627,
                0.18456411361694336
            ],
            "min" : [
                -1.8537335395812988,
                -0.666985034942627,
                -1.8154358863830566
            ],
            "type" : "VEC3"
        },
        {
            "bufferView" : 15,
            "componentType" : 5126,
            "count" : 4,
            "type" : "VEC3"
        },
        {
            "bufferView" : 16,
            "componentType" : 5126,
            "count" : 4,
            "type" : "VEC2"
        },
        {
            "bufferView" : 17,
            "componentType" : 5126,
            "count" : 24,
            "max" : [
                3.6539580821990967,
                2.0322461128234863,
                4.215903282165527
            ],
            "min" : [
                -3.653958797454834,
                -0.733129620552063,
                -0.8951191902160645
            ],
            "type" : "VEC3"
        },
        {
            "bufferView" : 18,
            "componentType" : 5126,
            "count" : 24,
            "type" : "VEC3"
        },
        {
            "bufferView" : 19,
            "componentType" : 5126,
            "count" : 24,
            "type" : "VEC2"
        },
        {
            "bufferView" : 20,
            "componentType" : 5123,
            "count" : 36,
            "type" : "SCALAR"
        },
        {
            "bufferView" : 21,
            "componentType" : 5126,
            "count" : 4,
            "max" : [
                1,
                0,
                1
            ],
            "min" : [
                -1,
                0,
                -1
            ],
            "type" : "VEC3"
        },
        {
            "bufferView" : 22,
            "componentType" : 5126,
            "count" : 4,
            "type" : "VEC3"
        },
        {
            "bufferView" : 23,
            "componentType" : 5126,
            "count" : 4,
            "type" : "VEC2"
        },
        {
            "bufferView" : 24,
            "componentType" : 5126,
            "count" : 4,
            "max" : [
                1,
                0,
                1
            ],
            "min" : [
                -1,
                0,
                -1
            ],
            "type" : "VEC3"
        },
        {
            "bufferView" : 25,
            "componentType" : 5126,
            "count" : 4,
            "type" : "VEC3"
        },
        {
            "bufferView" : 26,
            "componentType" : 5126,
            "count" : 4,
            "type" : "VEC2"
        }
    ],
    "bufferViews" : [
        {
            "buffer" : 0,
            "byteLength" : 96,
            "byteOffset" : 0
        },
        {
            "buffer" : 0,
            "byteLength" : 96,
            "byteOffset" : 96
        },
        {
            "buffer" : 0,
            "byteLength" : 64,
            "byteOffset" : 192
        },
        {
            "buffer" : 0,
            "byteLength" : 24,
            "byteOffset" : 256
        },
        {
            "buffer" : 0,
            "byteLength" : 48,
            "byteOffset" : 280
        },
        {
            "buffer" : 0,
            "byteLength" : 48,
            "byteOffset" : 328
        },
        {
            "buffer" : 0,
            "byteLength" : 32,
            "byteOffset" : 376
        },
        {
            "buffer" : 0,
            "byteLength" : 12,
            "byteOffset" : 408
        },
        {
            "buffer" : 0,
            "byteLength" : 48,
            "byteOffset" : 420
        },
        {
            "buffer" : 0,
            "byteLength" : 48,
            "byteOffset" : 468
        },
        {
            "buffer" : 0,
            "byteLength" : 32,
            "byteOffset" : 516
        },
        {
            "buffer" : 0,
            "byteLength" : 48,
            "byteOffset" : 548
        },
        {
            "buffer" : 0,
            "byteLength" : 48,
            "byteOffset" : 596
        },
        {
            "buffer" : 0,
            "byteLength" : 32,
            "byteOffset" : 644
        },
        {
            "buffer" : 0,
            "byteLength" : 48,
            "byteOffset" : 676
        },
        {
            "buffer" : 0,
            "byteLength" : 48,
            "byteOffset" : 724
        },
        {
            "buffer" : 0,
            "byteLength" : 32,
            "byteOffset" : 772
        },
        {
            "buffer" : 0,
            "byteLength" : 288,
            "byteOffset" : 804
        },
        {
            "buffer" : 0,
            "byteLength" : 288,
            "byteOffset" : 1092
        },
        {
            "buffer" : 0,
            "byteLength" : 192,
            "byteOffset" : 1380
        },
        {
            "buffer" : 0,
            "byteLength" : 72,
            "byteOffset" : 1572
        },
        {
            "buffer" : 0,
            "byteLength" : 48,
            "byteOffset" : 1644
        },
        {
            "buffer" : 0,
            "byteLength" : 48,
            "byteOffset" : 1692
        },
        {
            "buffer" : 0,
            "byteLength" : 32,
            "byteOffset" : 1740
        },
        {
            "buffer" : 0,
            "byteLength" : 48,
            "byteOffset" : 1772
        },
        {
            "buffer" : 0,
            "byteLength" : 48,
            "byteOffset" : 1820
        },
        {
            "buffer" : 0,
            "byteLength" : 32,
            "byteOffset" : 1868
        }
    ],
    "buffers" : [
        {
            "byteLength" : 1900,
            "uri" : "data:application/octet-stream;base64,"
        }
    ]
}
